PathFileType	4	(X/Y/Z)	Patient4_TMGait_0pt4_01_left_08.trc.trc
DataRate	CameraRate	NumFrames	NumMarkers	Units	OrigDataRate	OrigDataStartFrame	OrigNumFrames
74.866310160428	74.866310160428	6	33	mm	74.866310160428	36	       141
Frame#	Time	Sacral			L.Shoulder			Chest			R.Shoulder			Neck			R.ASIS			L.ASIS			R.Thigh.Superior			R.Thigh.Lateral			R.Thigh.Inferior			R.Patella			L.Thigh.Superior			L.Thigh.Lateral			L.Thigh.Inferior			L.Patella			L.Shank.Superior			L.Shank.Lateral			L.Shank.Inferior			R.Shank.Superior			R.Shank.Lateral			R.Shank.Inferior			R.Heel			R.Midfoot.Superior			R.Midfoot.Lateral			R.Toe			L.Heel			L.Midfoot.Lateral			L.Midfoot.Superior			L.Toe			L.Elbow			L.Wrist			R.Elbow			R.Wrist			
		X1	Y1	Z1	X2	Y2	Z2	X3	Y3	Z3	X4	Y4	Z4	X5	Y5	Z5	X6	Y6	Z6	X7	Y7	Z7	X8	Y8	Z8	X9	Y9	Z9	X10	Y10	Z10	X11	Y11	Z11	X12	Y12	Z12	X13	Y13	Z13	X14	Y14	Z14	X15	Y15	Z15	X16	Y16	Z16	X17	Y17	Z17	X18	Y18	Z18	X19	Y19	Z19	X20	Y20	Z20	X21	Y21	Z21	X22	Y22	Z22	X23	Y23	Z23	X24	Y24	Z24	X25	Y25	Z25	X26	Y26	Z26	X27	Y27	Z27	X28	Y28	Z28	X29	Y29	Z29	X30	Y30	Z30	X31	Y31	Z31	X32	Y32	Z32	X33	Y33	Z33	

36	9.767500000000	797.353940278596	1002.618924991799	517.859922605970	941.476453590484	1424.722301525560	305.047647427826	1065.390077369367	1365.450125553835	454.113714890861	1004.395513617316	1445.614952212753	634.447929377851	944.338437913682	1493.556932469737	457.932201330675	1036.360141875345	938.421047226505	612.023694964683	997.081468596222	963.218430279331	339.196258984133	1045.129604362985	726.577369115026	589.205086545630	952.103744733576	627.298552696098	658.205827988087	1018.152705151468	561.780527565387	580.164510655481	1003.309334880071	463.150700961967	596.406664186989	1070.093055155810	763.694916314975	377.537588517873	1000.226463548114	637.131869754651	315.187201265053	1092.069176898654	569.530187894919	380.750519114420	1099.596386108531	498.799818447077	389.161860096389	1076.829920922409	424.898398771734	379.452722188626	996.020312658693	306.942879926211	323.971702255754	1050.113310173582	196.487816770330	393.205698448748	941.216606218928	389.165294253657	604.250754942779	836.878689913810	320.846057869737	669.178109923255	842.822846477190	213.760018362564	612.268689811727	661.448376621972	87.924888177326	588.293681876077	839.368287049604	102.149038106706	622.886140705941	741.266781321045	58.107989585472	659.615331006229	944.860646925622	37.133507837143	647.752813506540	927.294117932288	38.280731812387	427.172511459038	1003.691107624477	36.615973202567	349.166079578560	1085.846435825789	97.205208146961	379.231218348973	1215.217198156056	44.978026421772	353.300305797161	882.558625839519	1070.472651077495	210.357432746598	952.439813966625	818.749971468965	196.233571923317	1086.421598726462	1105.478564550756	749.520990766935	1316.431525071715	1010.793170012378	688.047757186692	
37	9.780857142857	797.973720185361	1003.154343402481	513.630760349778	943.830713614540	1425.803612985506	302.046298802387	1066.283617014478	1366.299158609397	452.182151353637	1003.633845056632	1446.282071355463	631.979968860434	945.169764634116	1494.433688780523	454.984500995740	1036.144169975510	939.394229061267	609.634031904110	999.019446022655	963.815017905863	336.623706208699	1048.356673157827	728.155794093946	587.953007163001	956.941508979194	627.948182352078	657.058043143370	1025.182835030308	562.778033828522	580.073756529443	1011.308650876252	462.761424194943	597.894975682020	1070.502967542619	763.045177277430	374.961969498487	999.151870857753	636.946700749018	313.367635849050	1090.297715243383	568.712723680273	379.065705224452	1097.288995067360	498.151762325805	388.060980932832	1074.081574421577	424.377946450225	378.511343021717	992.750122279597	306.765000919857	323.266574016368	1045.837217212898	196.243811998622	393.015803102017	947.065404963114	389.709336540649	605.215675778803	840.199325886628	324.583701921793	669.188402361536	844.252787276770	216.829333075896	613.370865900437	659.519582736492	96.569016472148	589.027689934416	837.775759722311	103.403927570347	623.786017253142	738.000721767760	62.942026965957	660.009393651486	939.917802152982	36.832896903567	647.669625871881	922.042876525640	38.340623570285	427.151606764357	998.437759097784	36.624029110952	349.165788462765	1080.704281361401	97.145196708638	379.247144861502	1210.043645336952	44.523561520731	353.272442809677	889.000042226815	1071.313029849182	205.206076036849	966.339002638200	821.592861289389	191.668222651907	1081.457737592682	1105.224111339781	748.212212848888	1305.669082056575	993.616239687218	691.363184398088	
38	9.794214285714	798.407728401570	1003.581060262116	509.381852713419	946.308833056218	1426.791706864854	299.063781262149	1067.153807646874	1367.004370197401	450.351046155411	1002.744399654131	1446.793007375795	629.573218584544	946.012740285821	1495.192053512773	452.103624031425	1035.722985809444	940.261578406839	607.239663575563	1000.788121378748	964.282538265446	334.090068679661	1051.982662090559	729.843567968946	586.796088557356	962.388039187440	628.579896596404	656.032590309641	1032.944747338463	563.902629346740	580.136616241037	1020.068703440851	462.575841754238	599.407504785071	1070.639355399259	762.230756125304	372.232291774527	997.796304156153	636.717976154028	311.410601324218	1088.222541630187	567.848576371949	377.253962206032	1094.648525632151	497.459795437162	386.758291512256	1071.041831655368	423.820949962029	377.389578237115	989.196753001631	306.491617970479	322.471338317002	1041.407266215256	195.972349722319	392.748245440331	953.770304986448	390.377209899245	606.218445538115	844.474164839182	328.579101193563	669.295133167096	846.446069514673	220.241306296355	614.518692995367	658.398607103140	106.258659774268	589.857536360772	836.703768431427	105.005182418919	624.783139840556	735.224985001946	68.608465270667	660.479554082539	935.006591612925	36.408386522204	647.577140365153	916.724752198672	38.385870375560	427.145586223923	993.107447604907	36.600663074867	349.162981346311	1075.502973042019	97.039407436758	379.247765749434	1204.801379122208	44.021020950667	353.243670191209	895.459275227243	1072.171706864129	200.024327887005	980.474947724499	824.751611787829	187.298892483001	1076.307442819528	1104.894149450057	746.935856826305	1293.411785783968	976.575236873620	695.098817830761	
39	9.807571428571	798.635589044803	1003.887539854968	505.152737252599	948.864214487969	1427.651914338427	296.136590189734	1067.990879575929	1367.534466601058	448.628070592321	1001.761897893699	1447.123909255191	627.248771072227	946.871561980841	1495.806651659065	449.322664284348	1035.104678168900	941.006063431293	604.843320787052	1002.350266740619	964.614108850284	331.593102936016	1055.948978040137	731.654697263021	585.680612038210	968.407968611094	629.215757597748	655.091817989337	1041.356641490174	565.194686583178	580.277755997952	1029.522355676811	462.642222912970	600.829071745830	1070.550248471784	761.320395969073	369.433886545196	996.290484622441	636.470262006283	309.337995701990	1085.959667858382	566.969361778306	375.367029690686	1091.790734956712	496.736513288328	385.300791591083	1067.819064723371	423.229941497734	376.124336717970	985.462796838429	306.146744500402	321.585134976832	1036.869405752783	195.673837665971	392.413750515222	961.282422109445	391.198396694347	607.161276695466	849.706954973970	332.825276033926	669.462911512860	849.402057070547	224.017344422098	615.653931372358	658.183101931563	117.021445148210	590.778123279938	836.157598557299	107.033948192832	625.835871706255	733.019447940140	75.193510923155	661.026634000813	930.135877053243	35.804114074945	647.490736108097	911.361769757305	38.417313211125	427.138628048454	987.726939687564	36.554315653305	349.146328279981	1070.255652750527	96.906068770753	379.228325018551	1199.510747264129	43.514382725469	353.212373356774	901.959155060716	1073.007363207002	194.838025341099	994.788361134171	828.192907451499	183.131424910561	1070.865040305775	1104.423995627811	745.690177738396	1279.629956004420	959.901588594887	699.210026180628	
40	9.820928571429	798.645860646115	1004.073959339275	500.978398988023	951.442163077271	1428.361954972423	293.299367387586	1068.781080714274	1367.875021604971	447.017424892863	1000.715732300539	1447.262685581844	625.026597329809	947.747006317687	1496.266690128380	446.666511772272	1034.308373848905	941.626989017067	602.459880182385	1003.685215025784	964.809767941717	329.140019656567	1060.173160327793	733.609547958865	584.542269698444	974.934778436883	629.891550534560	654.183398671697	1050.295184083089	566.704117789532	580.397982255584	1039.570980828235	463.010794964667	602.036135656170	1070.291424841862	760.372748826497	366.646340340693	994.731406922119	636.216503418184	307.192077036538	1083.611043402413	566.095933093312	373.457053311520	1088.825307530257	495.991545499348	383.748247078714	1064.511824068213	422.607500633734	374.765728686736	981.638797446133	305.754806581425	320.625338631296	1032.265677144027	195.349650403132	392.030044745039	969.516764266164	392.209792661663	607.942343411508	855.858652156466	337.313264765148	669.644572452682	853.092944734641	228.172442521622	616.714073345238	658.948166575929	128.831001797267	591.771271123482	836.130781898561	109.558676163473	626.890256317877	731.458699158113	82.742541282691	661.641515069659	925.323644781111	34.981856535705	647.425711275549	905.974473715003	38.435907499342	427.120419921268	982.320210603741	36.493491999579	349.109388924077	1064.974962157657	96.761869889840	379.187630900424	1194.190236586450	43.040017928937	353.176787280150	908.523882351151	1073.790221771726	189.676748696346	1009.223363731543	831.888430144191	179.172448260937	1065.015036234339	1103.770114478351	744.480203194018	1264.332195047726	943.825061781156	703.631918837301	
41	9.834285714286	798.440720003926	1004.151398019256	496.890755103397	953.987760342355	1428.913288528343	290.581347024565	1069.508915536932	1368.029799083628	445.520719249549	999.626361702682	1447.211509841323	622.923323237033	948.636587220535	1496.576412215856	444.150706568830	1033.364255768937	942.138824253287	600.118251352644	1004.791077207542	964.877133878525	326.748768368050	1064.557077223216	735.730942120261	583.314969930681	981.874100667021	630.652685525719	653.246673692399	1059.601601541441	568.483038465574	580.384417199460	1050.086865351211	463.727797892714	602.908289490216	1069.916962357175	759.430218982702	363.938064452678	993.181334840800	635.960053852376	305.027413301486	1081.256668816836	565.239484146623	371.572780180952	1085.844533405707	495.231995899184	382.165219686634	1061.199591570996	421.956757726676	373.370753977392	977.796763907658	305.338745469089	319.621444704928	1027.631182499800	195.002276551918	391.618057045972	978.354647471473	393.451368455894	608.467099666756	862.846319832510	342.029731882510	669.785860914551	857.464882526381	232.708300195875	617.639094813852	660.736645871407	141.587971771783	592.804909947166	836.612652761244	112.624736962185	627.889918183671	730.607792289724	91.239430415102	662.304586931025	920.606826686134	33.934361075282	647.395288898548	900.579270027247	38.442988811799	427.085947390730	976.905767242907	36.425839691889	349.050214384515	1059.671693962826	96.619926485367	379.127448542847	1188.854519888206	42.622482451390	353.135500790311	915.173321651311	1074.504403016890	184.573989090185	1023.726031115407	835.817675833428	175.429964335499	1058.644199395499	1102.918602156980	743.315649646550	1247.569312551603	928.564764312530	708.281074185983	
